HIERARCHY
ROOT pelvis
{
  OFFSET 0 100 0
  CHANNELS 6 Xposition Yposition Zposition Zrotation Xrotation Yrotation
  JOINT pelvis_right_femur
  {
    OFFSET -10.78128 -3.44521 -0.5502486
    CHANNELS 3 Zrotation Xrotation Yrotation
    JOINT right_femur_tibia
    {
      OFFSET -0.8047443 -44.0398 -0.1307829
      CHANNELS 3 Zrotation Xrotation Yrotation
      JOINT right_tibia_foot
      {
        OFFSET 3.006224 -47.83518 -5
        CHANNELS 3 Zrotation Xrotation Yrotation
        End Site
        {
          OFFSET 0 -5 15
        }
      }
    }
  }
  JOINT pelvis_left_femur
  {
    OFFSET 10.78128 -3.44521 -0.5502486
    CHANNELS 3 Zrotation Xrotation Yrotation
    JOINT left_femur_tibia
    {
      OFFSET 0.8047443 -44.0398 -0.1307829
      CHANNELS 3 Zrotation Xrotation Yrotation
      JOINT left_tibia_foot
      {
        OFFSET -4.370144 -48.10324 -4.275266
        CHANNELS 3 Zrotation Xrotation Yrotation
        End Site
        {
          OFFSET 0 -5 15
        }
      }
    }
  }
  JOINT pelvis_spine1
  {
    OFFSET 0 6.468898 -3.129235
    CHANNELS 3 Zrotation Xrotation Yrotation
    JOINT spine1
    {
      OFFSET 0 23.15396 4.99043
      CHANNELS 3 Zrotation Xrotation Yrotation
      JOINT spine2
      {
        OFFSET 0 20.79997 -5.064912
        CHANNELS 3 Zrotation Xrotation Yrotation
        JOINT neck
        {
          OFFSET 0 14.38658 9.616178
          CHANNELS 3 Zrotation Xrotation Yrotation
          End Site
          {
            OFFSET 0 20 0
          }
        }
      }
      JOINT right_manubrium
      {
        OFFSET -5.722621 16.35077 3.967754
        CHANNELS 3 Zrotation Xrotation Yrotation
        JOINT right_clavicle
        {
          OFFSET -13.16364 1.694482 -4.693211
          CHANNELS 3 Zrotation Xrotation Yrotation
          JOINT right_humerus
          {
            OFFSET -28.5034 -0.3100689 -2.792744
            CHANNELS 3 Zrotation Xrotation Yrotation
            JOINT right_radius
            {
              OFFSET -25.15693 0.02248979 -1.271978
              CHANNELS 3 Zrotation Xrotation Yrotation
              End Site
              {
                OFFSET -15 0 0
              }
            }
          }
        }
      }
      JOINT left_manubrium
      {
        OFFSET 5.722621 16.35077 3.967754
        CHANNELS 3 Zrotation Xrotation Yrotation
        JOINT left_clavicle
        {
          OFFSET 13.16364 1.694482 -4.693211
          CHANNELS 3 Zrotation Xrotation Yrotation
          JOINT left_humerus
          {
            OFFSET 29.39168 -1.063119 -2.237045
            CHANNELS 3 Zrotation Xrotation Yrotation
            JOINT left_radius
            {
              OFFSET 24.59957 -0.9528479 0.9047498
              CHANNELS 3 Zrotation Xrotation Yrotation
              End Site
              {
                OFFSET 15 -0 -0
              }
            }
          }
        }
      }
    }
  }
}
MOTION
Frames: 21
Frame Time: 0.0416666666667
0 103.5113 0 0.7113374 -0.9799248 0.7211516 1.856604 -22.24382 4.663062 -0 33.66126 -0 -2.859449 -7.812924 -4.157605 -6.284874 11.86979 -17.03048 0 -0.9525185 0 2.419735 -21.51092 19.97227 -3.795326 -0.9837921 3.037214 2.204714 8.051305 -7.557064 1.247287 21.83212 7.246052 3.037519 -22.38865 8.893122 4.910133 -17.42182 10.59559 85.54581 32.79874 -17.85716 -0 0 14.21074 -12.7377 9.145668 8.018641 6.025758 -19.103 -2.536543 -89.16238 28.00512 15.97552 0 0 -19.10083 2.560627 12.23158 10.73309
0.4692479 102.4426 3.650892 0.6936331 -0.9450408 1.417348 1.928257 -22.46232 4.628527 -0 33.19896 -0 -2.957925 -7.819122 -4.148588 -6.246142 12.00367 -17.00248 0 -0.7738147 0 2.449944 -21.50298 19.93155 -3.75917 -1.001191 3.021757 2.231783 8.082378 -7.595469 1.242756 21.81966 7.239686 3.033981 -22.43252 8.890143 4.871715 -17.43158 10.60929 85.65462 32.76116 -17.999 -0 0 14.11533 -12.71118 9.168785 7.982782 6.046447 -19.2019 -2.559754 -89.10739 27.92384 15.90327 0 0 -19.26364 2.683462 12.29606 10.58075
0.7703043 101.1126 7.039375 0.1067463 0.2108252 1.881006 3.362179 -27.2674 4.50089 -0 24.25342 -0 -4.64121 -9.309901 -3.848933 -5.551806 14.48533 -17.27634 0 -0.1830733 0 3.55645 -21.96796 19.72295 -3.26341 -1.360083 2.771453 2.903428 8.370641 -8.39623 1.088123 21.44531 7.252885 3.038135 -23.60546 8.956175 4.609994 -17.75171 10.86221 87.00569 33.16314 -20.37945 -0 0 12.98463 -11.39767 9.512871 7.113516 6.513152 -20.80757 -2.671705 -88.54545 27.02136 15.11612 0 0 -22.24237 4.751327 13.55532 8.05107
0.9885291 99.6663 10.4134 -0.1086468 0.4057699 2.262558 3.927624 -28.8267 4.389153 -0 20.85749 -0 -5.284682 -9.456244 -3.842864 -5.2682 15.40731 -17.06399 -0 1.569305 -0 3.63212 -21.84818 19.36665 -3.000171 -1.456293 2.676041 3.110738 8.560418 -8.673183 1.060301 21.35448 7.203385 3.018366 -23.88606 8.922741 4.392766 -17.74516 10.95741 87.74079 32.95405 -21.40818 -0 0 12.2683 -11.15132 9.684473 6.813745 6.64509 -21.47826 -2.807294 -88.14782 26.50117 14.54182 0 0 -23.44009 5.563495 13.89237 7.053306
1.10143 98.29148 13.99839 -0.2623437 0.2003766 2.531306 4.511432 -29.7656 4.321367 -0 17.88897 -0 -5.694686 -9.064845 -4.104719 -5.004269 16.16252 -16.31421 -0 6.506345 -0 2.850135 -21.14657 18.47973 -2.651783 -1.40809 2.610241 3.230838 8.786473 -8.866558 1.096877 21.35989 7.072223 2.982116 -23.78461 8.779566 4.147056 -17.3467 11.02989 88.62136 32.39322 -22.53241 -0 0 11.09721 -11.23113 9.918434 6.518525 6.653663 -22.06393 -3.02579 -87.44498 25.92838 13.42086 0 0 -24.64472 6.052828 13.805 6.426952
1.138188 97.09674 17.91633 -0.2882758 -0.340369 2.716896 4.842288 -29.61772 4.250293 -0 16.58147 -0 -5.742638 -8.240034 -4.487451 -4.866731 16.38807 -15.3213 -0 12.36034 -0 1.628866 -20.14089 17.48741 -2.356998 -1.253292 2.601688 3.201557 8.984141 -8.888328 1.181575 21.4613 6.907799 2.938058 -23.3556 8.58709 3.924567 -16.78371 11.05578 89.29695 31.63476 -23.2416 -0 0 9.991594 -11.66353 10.12058 6.390637 6.539043 -22.34616 -3.258687 -86.75949 25.46841 12.28861 0 0 -25.32011 6.076557 13.38652 6.355935
1.111109 96.17687 22.26289 -0.2373039 -1.106945 2.827871 5.068815 -28.69601 4.222543 -0 16.10978 -0 -5.530513 -7.217723 -4.985207 -4.776657 16.17403 -14.09721 -0 19.36338 -0 0.01737388 -18.80623 16.38643 -2.072422 -1.006988 2.649551 3.082347 9.159896 -8.796517 1.303353 21.62275 6.705661 2.889687 -22.68278 8.343351 3.736514 -16.06686 11.05817 89.82691 30.77551 -23.7034 -0 0 8.891901 -12.31026 10.32651 6.349093 6.331435 -22.42368 -3.491901 -86.06387 25.08471 11.0979 0 0 -25.69615 5.7526 12.69593 6.696582
1.035747 95.59097 27.07761 -0.1314127 -2.00098 2.872376 5.202485 -27.0758 4.234949 -0 16.26098 -0 -5.124108 -6.181134 -5.527945 -4.699125 15.46702 -12.75746 -0 26.78361 -0 -1.770403 -17.24434 15.32582 -1.81058 -0.7045508 2.760064 2.894291 9.30977 -8.606171 1.446629 21.81709 6.478051 2.838939 -21.86023 8.069365 3.583652 -15.31219 11.0469 90.16544 29.90137 -23.87519 -0 0 7.939729 -13.09793 10.52851 6.40165 6.059348 -22.31599 -3.700563 -85.44779 24.78097 10.01865 0 0 -25.7585 5.171341 11.83002 7.346077
0.9248015 95.37473 32.36891 0.006553232 -2.957194 2.850263 5.280604 -24.79588 4.303934 -0 16.74917 -0 -4.57428 -5.289332 -6.077052 -4.585405 14.19969 -11.35124 -0 34.34724 -0 -3.638237 -15.48412 14.3748 -1.567105 -0.3635094 2.94483 2.657081 9.432923 -8.33009 1.602276 22.02369 6.226264 2.785757 -20.9445 7.770874 3.468627 -14.58442 11.03146 90.28997 29.07356 -23.75172 -0 0 7.211988 -13.96966 10.73215 6.542259 5.738933 -22.04307 -3.865587 -84.95646 24.55782 9.143365 0 0 -25.5272 4.391062 10.83495 8.237456
0.7912813 95.53415 38.11275 0.1549224 -3.91156 2.755094 5.322018 -21.86033 4.431201 -0 17.33963 -0 -3.941599 -4.692719 -6.573763 -4.386246 12.27941 -9.937211 -0 41.62695 -0 -5.465775 -13.57885 13.61457 -1.342653 -0.007387805 3.217202 2.385638 9.531863 -7.976161 1.759717 22.22219 5.952809 2.72775 -19.99834 7.456049 3.384781 -13.97294 11.02087 90.16857 28.33994 -23.29858 -0 0 6.816617 -14.88185 10.93844 6.779871 5.387011 -21.6218 -3.969227 -84.65329 24.41235 8.603992 0 0 -24.99149 3.476713 9.772566 9.295285
0.6503464 96.03827 44.25262 0.2912962 -4.79569 2.573921 5.340192 -18.24821 4.616901 -0 17.79929 -0 -3.292223 -4.555538 -6.944423 -4.04953 9.585215 -8.574964 -0 48.12064 -0 -7.127892 -11.59434 13.12493 -1.139859 0.3377463 3.594364 2.093944 9.609182 -7.549584 1.907053 22.39084 5.660508 2.660666 -19.08934 7.133427 3.324042 -13.5818 11.02459 89.75599 27.74849 -22.46095 -0 0 6.885395 -15.79165 11.14719 7.129662 5.020009 -21.06522 -3.991505 -84.61666 24.34303 8.560445 0 0 -24.12401 2.489003 8.713844 10.44738
0.5218558 96.80627 50.69454 0.390593 -5.526432 2.2884 5.342965 -13.958 4.850517 -0 17.88117 -0 -2.710937 -5.05129 -7.091978 -3.527201 6.000202 -7.336391 -0 53.14128 -0 -8.463432 -9.634472 12.99017 -0.9644695 0.6361247 4.092194 1.798148 9.670374 -7.058502 2.028729 22.50415 5.355693 2.578024 -18.30461 6.816199 3.271582 -13.54248 11.05369 89.00231 27.3431 -21.17074 -0 0 7.575377 -16.65075 11.35473 7.611951 4.659473 -20.39475 -3.912994 -84.94583 24.33707 9.208719 0 0 -22.89152 1.504922 7.761997 11.59918
0.4325976 97.69706 57.30452 0.4286201 -6.010544 1.878645 5.331953 -9.051432 5.108132 -0 17.36148 -0 -2.291743 -6.329194 -6.909269 -2.792911 1.46454 -6.302679 -0 55.84501 -0 -9.279814 -7.846188 13.28537 -0.8258888 0.8429534 4.717504 1.516709 9.72389 -6.517765 2.106231 22.53561 5.050479 2.472103 -17.74773 6.523762 3.206351 -13.99889 11.1191 87.86856 27.15327 -19.36581 -0 0 9.040829 -17.40614 11.55211 8.245997 4.332969 -19.64562 -3.719958 -85.74848 24.36052 10.74914 0 0 -21.27085 0.6184399 7.052918 12.6324
0.4163339 98.51424 63.91707 0.3915298 -6.172824 1.331979 5.29966 -3.710866 5.347483 -0 16.14281 -0 -2.111076 -8.423813 -6.317852 -1.870549 -3.925814 -5.548786 -0 55.42464 -0 -9.391695 -6.401346 14.04535 -0.7357274 0.9125424 5.453517 1.266248 9.782125 -5.952139 2.122841 22.46725 4.763628 2.336832 -17.51479 6.280645 3.101025 -15.0597 11.22657 86.36688 27.16484 -17.03588 -0 0 11.35786 -18.01661 11.72332 9.039034 4.071119 -18.87233 -3.417268 -87.0961 24.34422 13.2969 0 0 -19.27859 -0.06642099 6.731686 13.41489
0.5092087 99.04477 70.36475 0.2905556 -6.012532 0.656314 5.223161 1.732296 5.512068 -0 14.43279 -0 -2.181158 -11.12308 -5.331486 -0.8615515 -9.810806 -5.116187 -0 51.53905 -0 -8.716735 -5.43971 15.22055 -0.7052131 0.8198283 6.244477 1.051128 9.85891 -5.393688 2.074023 22.3072 4.517776 2.173587 -17.63947 6.109983 2.927897 -16.71039 11.36738 84.61435 27.28793 -14.2882 -0 0 14.40986 -18.48601 11.84443 9.971825 3.896552 -18.14069 -3.043507 -88.9415 24.19255 16.73664 0 0 -17.0009 -0.4680364 6.884346 13.84518
0.7396898 99.134 76.52989 0.1698947 -5.659321 -0.1088229 5.058738 6.844239 5.550397 -0 12.87837 -0 -2.418493 -13.88253 -4.104569 0.05812222 -15.53776 -4.986476 -0 44.80402 -0 -7.393733 -4.995254 16.64348 -0.7420744 0.5873229 6.993114 0.8523462 9.962825 -4.871885 1.978547 22.10475 4.332268 1.996895 -18.03164 6.022708 2.669993 -18.7301 11.51058 82.86494 27.35473 -11.39506 -0 0 17.80267 -18.89366 11.88578 10.98865 3.807973 -17.50444 -2.675889 -91.04208 23.83888 20.60946 0 0 -14.60195 -0.5784211 7.449545 13.92057
1.117474 98.76087 82.39669 0.09249856 -5.36076 -0.8934128 4.747288 11.21874 5.445711 -0 12.44527 -0 -2.668733 -15.93645 -2.905941 0.6933705 -20.31823 -5.078793 -0 36.85662 -0 -5.810091 -4.97214 18.04773 -0.8490803 0.2924601 7.585998 0.62949 10.08894 -4.402272 1.87805 21.94322 4.215846 1.83339 -18.4746 6.010538 2.333341 -20.70971 11.60853 81.45428 27.18135 -8.748411 -0 0 20.93209 -19.37914 11.81914 12.00348 3.772985 -16.97897 -2.408861 -92.99252 23.32564 24.19602 0 0 -12.28694 -0.4975043 8.192913 13.77719
1.629051 98.05525 88.06423 0.1076748 -5.366692 -1.610979 4.239793 14.59896 5.22995 -0 13.97618 -0 -2.781546 -16.63054 -2.008798 0.912411 -23.52591 -5.284394 -0 29.66948 -0 -4.445217 -5.211505 19.16087 -1.023754 0.0349673 7.938237 0.3439896 10.21719 -3.986498 1.818019 21.90234 4.165882 1.711033 -18.72329 6.05148 1.951464 -22.2168 11.61983 80.65224 26.66567 -6.705404 -0 0 23.22756 -20.06393 11.62973 12.92342 3.744002 -16.54032 -2.311803 -94.40375 22.81198 26.82408 0 0 -10.23749 -0.3967265 8.811532 13.63605
2.243047 97.24165 93.70018 0.2290403 -5.791743 -2.176765 3.531299 16.88757 4.962263 -0 17.73536 -0 -2.674138 -15.7344 -1.575268 0.6917317 -24.90931 -5.51978 -0 24.59062 -0 -3.628328 -5.58956 19.81773 -1.257382 -0.1145859 8.023105 -0.0123771 10.3214 -3.625961 1.823683 22.01723 4.174581 1.64672 -18.63668 6.124072 1.576482 -22.99204 11.53255 80.53766 25.83931 -5.443191 -0 0 24.3921 -20.96808 11.32646 13.67312 3.688251 -16.15625 -2.398838 -95.08138 22.4713 28.15475 0 0 -8.572498 -0.4190071 9.097145 13.67482
2.921185 96.55491 99.4645 0.440023 -6.574873 -2.523832 2.674744 18.07089 4.690475 -0 23.31585 -0 -2.34437 -13.47716 -1.620991 0.09704815 -24.57022 -5.756092 -0 21.93046 -0 -3.421113 -6.059324 20.00264 -1.534121 -0.1406469 7.86609 -0.4095759 10.38185 -3.333885 1.89151 22.26824 4.235117 1.642281 -18.22962 6.216919 1.260384 -23.01657 11.36634 81.00433 24.8359 -4.946692 -0 0 24.44808 -21.99749 10.94207 14.20557 3.604444 -15.81891 -2.634438 -95.05092 22.38671 28.21927 0 0 -7.355954 -0.602772 9.014951 13.93756
3.628923 96.17628 105.4529 0.7122061 -7.542906 -2.614141 1.764036 18.15612 4.429268 -0 29.89708 -0 -1.850351 -10.34838 -2.057 -0.7634946 -22.79971 -6.008467 -0 21.22689 -0 -3.678215 -6.631266 19.8055 -1.832629 -0.07161201 7.518693 -0.7946486 10.39207 -3.134481 1.99829 22.60133 4.343189 1.688732 -17.62686 6.32827 1.038169 -22.441 11.15613 81.86095 23.82047 -5.097987 -0 0 23.61636 -22.99805 10.52273 14.50034 3.516067 -15.55225 -2.961427 -94.46537 22.53668 27.26956 0 0 -6.62207 -0.887051 8.666666 14.34452
